<?xml version="1.0" standalone="no"?>
<!DOCTYPE svg PUBLIC "-//W3C//DTD SVG 20010904//EN"
 "http://www.w3.org/TR/2001/REC-SVG-20010904/DTD/svg10.dtd">
<svg version="1.0" xmlns="http://www.w3.org/2000/svg"
 width="4096.000000pt" height="4096.000000pt" viewBox="0 0 4096.000000 4096.000000"
 preserveAspectRatio="xMidYMid meet">
<metadata>
Created by potrace 1.14, written by Peter Selinger 2001-2017
</metadata>
<g transform="translate(0.000000,4096.000000) scale(0.100000,-0.100000)"
fill="#000000" stroke="none">
<path d="M2970 32522 l0 -1599 73 -13 c39 -8 77 -15 82 -16 6 -1 24 -5 40 -8
34 -7 69 -13 105 -21 14 -2 41 -7 60 -10 19 -3 42 -8 50 -10 16 -4 71 -15 105
-20 11 -2 54 -10 95 -19 41 -8 89 -18 105 -21 17 -2 41 -7 55 -10 14 -2 72
-14 130 -25 58 -11 116 -23 130 -25 14 -3 39 -8 55 -11 17 -2 88 -16 159 -30
139 -28 138 -28 206 -40 25 -4 47 -8 50 -9 41 -10 70 -16 95 -20 17 -3 41 -7
55 -10 14 -3 41 -8 60 -11 19 -3 51 -9 70 -14 19 -5 51 -11 70 -14 19 -3 46
-8 60 -11 14 -3 40 -8 59 -11 18 -3 43 -8 55 -10 11 -3 44 -9 71 -14 28 -6 61
-12 75 -15 14 -3 40 -8 59 -11 18 -3 41 -7 50 -9 186 -38 210 -43 256 -50 17
-3 41 -7 55 -10 14 -3 36 -7 50 -10 51 -10 76 -15 105 -21 17 -4 39 -8 50 -9
20 -2 20 -10 23 -9468 2 -9445 2 -9466 -18 -9472 -11 -3 -30 -8 -42 -11 -13
-2 -32 -6 -43 -8 -29 -6 -225 -44 -260 -50 -37 -7 -72 -14 -105 -21 -41 -9
-72 -14 -114 -21 -22 -3 -43 -7 -46 -9 -3 -2 -25 -6 -50 -10 -25 -4 -47 -8
-50 -10 -3 -2 -24 -6 -46 -9 -22 -4 -51 -9 -64 -11 -14 -3 -38 -8 -55 -11 -16
-3 -64 -12 -105 -20 -41 -9 -82 -17 -90 -19 -61 -11 -88 -16 -110 -21 -14 -3
-38 -7 -54 -9 -15 -2 -35 -7 -45 -9 -9 -3 -31 -8 -48 -11 -54 -9 -87 -14 -113
-20 -14 -4 -34 -7 -45 -9 -11 -2 -33 -6 -50 -10 -46 -10 -77 -16 -115 -22 -19
-3 -54 -10 -78 -15 -23 -5 -59 -12 -80 -15 -20 -3 -39 -7 -42 -9 -3 -2 -26 -6
-50 -10 -25 -3 -63 -10 -85 -15 -22 -5 -53 -11 -70 -14 -16 -3 -41 -8 -55 -11
-14 -3 -50 -9 -80 -15 -30 -6 -66 -12 -80 -15 -14 -3 -36 -7 -50 -10 -14 -3
-36 -7 -50 -10 -14 -3 -38 -8 -55 -10 -16 -3 -37 -8 -45 -10 -8 -2 -26 -6 -40
-8 -31 -6 -113 -20 -120 -22 -3 -1 -25 -5 -50 -9 -25 -4 -62 -12 -83 -17 l-37
-10 0 -1587 0 -1587 5475 0 5475 0 -2 1590 -3 1590 -90 17 c-49 10 -105 20
-124 24 -18 3 -43 8 -55 10 -20 4 -88 18 -146 29 -14 3 -36 7 -50 10 -14 2
-37 7 -53 9 -15 3 -35 7 -45 10 -9 3 -33 7 -52 10 -19 3 -46 8 -60 11 -14 3
-41 8 -60 11 -19 3 -51 9 -70 14 -19 5 -53 12 -75 15 -81 14 -107 19 -315 60
-14 3 -38 7 -55 10 -16 3 -41 8 -55 10 -14 3 -36 7 -50 10 -14 3 -36 7 -50 10
-44 9 -74 15 -109 21 -18 3 -43 8 -55 10 -11 3 -43 9 -71 14 -27 6 -61 12 -75
15 -30 6 -68 13 -112 20 -18 3 -40 8 -48 10 -8 2 -28 7 -45 10 -16 2 -41 7
-55 10 -14 3 -38 7 -55 10 -29 5 -103 20 -155 30 -14 3 -36 7 -50 9 -14 2 -36
7 -50 10 -14 3 -36 8 -50 10 -14 3 -50 10 -80 15 -30 6 -66 13 -80 16 -14 3
-36 7 -50 10 -14 2 -38 7 -55 10 -16 3 -41 7 -55 10 -47 9 -75 15 -105 21 -16
3 -37 6 -46 6 -13 0 -15 17 -10 141 9 223 6 2008 -3 2457 -5 223 -10 461 -11
530 -5 270 -32 1248 -49 1800 -12 360 -17 502 -21 620 -2 69 -7 206 -10 305
-3 99 -8 232 -10 295 -2 63 -7 194 -10 290 -4 96 -8 213 -10 260 -2 47 -6 166
-10 264 -3 99 -8 222 -10 275 -2 53 -7 170 -10 261 -3 91 -8 210 -10 265 -3
55 -7 165 -10 245 -3 80 -7 190 -10 245 -2 55 -7 168 -10 250 -3 83 -8 197
-10 255 -3 58 -7 166 -10 240 -3 74 -7 180 -10 235 -2 55 -7 163 -10 240 -3
77 -8 187 -10 245 -3 58 -7 166 -10 240 -3 74 -7 178 -10 230 -3 52 -7 156
-10 230 -3 74 -7 178 -10 230 -2 52 -7 156 -10 230 -3 74 -8 178 -10 230 -3
52 -7 151 -10 220 -3 69 -7 175 -10 235 -3 61 -7 162 -10 225 -3 63 -7 165
-10 225 -8 165 -13 284 -21 450 -3 83 -7 179 -9 215 -2 36 -6 135 -10 220 -9
192 -11 245 -20 440 -4 85 -9 182 -10 215 -5 106 -16 347 -20 430 -4 84 -15
334 -20 445 -4 80 -16 351 -20 440 -2 36 -6 137 -10 225 -4 88 -9 185 -10 215
-9 218 -17 385 -20 401 -4 22 5 29 48 36 59 9 64 7 72 -26 3 -16 22 -69 41
-118 20 -48 37 -95 39 -103 2 -8 9 -28 16 -45 6 -16 13 -34 15 -40 11 -36 124
-346 141 -385 3 -8 7 -17 7 -20 1 -3 6 -18 13 -35 6 -16 23 -64 38 -105 15
-41 29 -82 32 -90 4 -8 7 -17 7 -20 1 -3 5 -11 9 -17 5 -7 10 -21 12 -30 6
-32 57 -168 66 -177 5 -6 9 -18 9 -28 0 -10 4 -26 10 -36 5 -9 42 -107 81
-217 40 -110 77 -211 82 -225 6 -14 11 -27 11 -30 1 -3 5 -11 9 -17 5 -7 6
-13 2 -13 -3 0 4 -18 15 -40 11 -22 18 -40 16 -40 -2 0 12 -39 31 -87 19 -49
36 -95 38 -103 2 -8 11 -33 19 -55 8 -22 29 -78 46 -125 17 -47 49 -132 70
-190 21 -58 51 -141 68 -185 16 -44 62 -170 102 -280 40 -110 77 -211 83 -225
6 -14 11 -29 12 -35 2 -5 14 -39 28 -75 13 -36 37 -99 52 -140 15 -41 36 -100
48 -130 12 -30 22 -59 24 -65 1 -5 14 -41 28 -80 15 -38 30 -82 35 -96 4 -14
13 -36 20 -48 6 -12 13 -30 15 -39 3 -16 106 -302 124 -347 5 -11 27 -69 49
-130 22 -60 65 -178 96 -262 31 -84 56 -156 56 -160 0 -4 7 -21 15 -36 8 -15
19 -42 24 -60 5 -18 48 -138 96 -267 133 -359 145 -392 162 -440 8 -25 20 -56
26 -70 6 -14 11 -27 12 -30 6 -26 29 -87 35 -95 5 -5 9 -14 9 -20 0 -10 26
-84 41 -120 5 -11 30 -78 55 -150 26 -71 54 -148 63 -170 9 -21 17 -42 17 -45
0 -6 73 -208 85 -235 5 -11 29 -76 53 -145 54 -151 155 -427 167 -455 5 -11
20 -54 35 -95 15 -41 30 -84 35 -95 20 -51 64 -171 66 -180 1 -5 32 -89 68
-187 36 -97 66 -179 66 -183 0 -4 6 -21 14 -38 7 -18 21 -52 29 -77 9 -25 22
-58 28 -75 7 -16 13 -34 15 -40 2 -10 53 -148 79 -215 8 -19 32 -87 55 -150
61 -169 78 -214 102 -277 13 -32 23 -60 24 -63 0 -3 3 -12 7 -20 3 -8 18 -49
32 -90 77 -215 96 -267 104 -285 10 -22 71 -184 75 -200 2 -5 5 -17 9 -25 3
-8 26 -73 52 -145 26 -71 76 -206 110 -300 35 -93 67 -183 73 -200 15 -43 61
-167 69 -185 3 -8 7 -19 9 -25 2 -8 39 -112 70 -195 3 -8 5 -16 5 -17 -1 -2
10 -28 24 -58 13 -31 24 -56 24 -58 0 -3 3 -13 77 -217 37 -102 75 -207 85
-235 9 -27 23 -63 30 -80 7 -16 13 -32 13 -35 2 -5 74 -206 83 -230 4 -8 7
-17 8 -20 1 -3 5 -14 9 -25 4 -11 17 -45 28 -75 11 -30 26 -70 34 -88 8 -18
14 -37 14 -43 0 -6 6 -25 14 -42 8 -18 24 -59 35 -92 12 -33 25 -67 28 -75 3
-8 7 -17 7 -20 2 -7 36 -100 46 -125 4 -11 17 -45 28 -75 11 -30 23 -64 28
-75 4 -11 8 -24 10 -30 1 -5 17 -48 34 -95 79 -212 102 -274 151 -410 28 -80
56 -156 62 -170 6 -14 11 -29 13 -35 1 -5 16 -46 33 -90 17 -44 31 -82 31 -86
0 -4 8 -24 17 -45 9 -22 18 -43 19 -49 4 -16 74 -208 84 -230 5 -11 20 -51 34
-90 39 -111 86 -239 93 -255 3 -8 7 -17 7 -20 1 -3 10 -27 20 -55 10 -27 27
-75 38 -105 11 -30 24 -64 29 -75 5 -11 16 -42 25 -70 9 -27 21 -61 27 -75 5
-14 11 -29 13 -35 1 -5 22 -64 47 -130 25 -66 61 -165 81 -220 20 -55 40 -107
43 -115 3 -8 7 -17 8 -20 4 -19 29 -87 34 -95 3 -5 6 -14 8 -20 2 -11 49 -141
60 -165 3 -8 7 -17 8 -20 5 -21 30 -90 41 -115 7 -16 19 -50 27 -75 8 -25 20
-56 26 -70 5 -14 53 -144 106 -290 53 -146 99 -272 102 -280 3 -8 7 -19 9 -25
4 -12 112 -305 121 -325 3 -8 7 -17 7 -20 1 -3 6 -18 13 -35 19 -50 26 -70 29
-80 1 -5 19 -55 40 -110 85 -230 97 -264 129 -350 18 -49 58 -160 89 -245 31
-85 59 -162 63 -170 3 -8 7 -19 9 -25 1 -5 8 -23 15 -40 6 -16 13 -34 15 -40
1 -5 15 -41 29 -80 14 -38 30 -83 35 -100 5 -16 14 -39 19 -50 17 -36 50 -130
57 -158 3 -15 10 -30 15 -33 5 -3 9 -11 9 -19 0 -8 5 -26 12 -42 6 -15 12 -32
14 -38 4 -15 104 -287 114 -310 9 -20 104 -280 166 -455 19 -52 37 -102 41
-110 3 -8 7 -19 9 -25 1 -5 66 -183 144 -395 78 -212 148 -403 156 -425 l15
-40 1902 1 c1046 1 1931 4 1967 8 122 11 185 17 210 21 14 2 48 7 75 10 104
14 163 24 210 37 47 14 41 12 85 22 65 16 159 67 247 135 83 64 255 228 333
316 81 92 207 246 262 320 4 6 18 24 32 40 87 110 336 477 491 725 43 69 96
152 117 186 21 33 38 65 38 71 0 6 4 13 9 15 4 2 19 22 32 45 13 23 62 106
108 185 142 240 246 421 384 670 15 26 46 83 70 125 24 43 61 110 82 148 21
39 51 94 66 123 163 297 216 396 357 662 24 47 61 117 82 155 20 39 65 124
100 190 34 66 88 170 120 230 213 407 740 1438 741 1450 0 2 19 39 43 82 36
66 1062 2116 1091 2181 6 13 41 84 79 160 38 75 70 139 71 142 1 3 77 158 169
345 202 408 435 882 447 910 5 11 13 27 18 35 13 21 138 274 139 280 0 3 72
151 160 330 290 592 418 853 501 1025 46 94 90 184 99 200 8 17 19 37 23 45 5
8 66 134 137 280 154 314 298 609 503 1028 83 169 198 402 254 517 184 376
385 787 458 935 40 80 72 147 73 150 0 3 78 163 173 355 95 193 215 438 267
545 53 107 102 209 111 225 9 17 20 37 25 45 4 8 54 112 112 230 57 118 170
350 251 515 81 165 189 386 240 490 51 105 159 325 240 490 172 349 354 721
502 1025 58 118 168 343 245 500 77 157 178 363 225 458 46 94 86 172 89 172
3 0 3 -4 0 -8 -3 -4 -7 -33 -11 -63 -3 -30 -8 -67 -10 -84 -2 -16 -7 -55 -10
-85 -3 -30 -8 -71 -11 -91 -2 -20 -6 -54 -9 -75 -2 -21 -6 -52 -9 -69 -2 -16
-7 -55 -11 -85 -3 -30 -8 -71 -11 -91 -2 -20 -7 -55 -9 -79 -2 -24 -7 -59 -10
-79 -3 -20 -7 -55 -10 -78 -3 -24 -7 -62 -10 -85 -8 -62 -20 -156 -30 -243 -7
-59 -15 -120 -20 -155 -2 -14 -6 -47 -10 -75 -3 -27 -7 -66 -9 -85 -3 -19 -7
-60 -11 -90 -3 -30 -8 -66 -10 -80 -5 -30 -12 -84 -20 -165 -4 -33 -8 -71 -10
-85 -2 -14 -7 -50 -10 -80 -3 -30 -8 -66 -10 -80 -3 -14 -7 -50 -10 -80 -3
-30 -8 -66 -10 -80 -2 -14 -6 -45 -9 -70 -3 -25 -8 -65 -11 -90 -3 -25 -8 -63
-10 -84 -3 -21 -7 -56 -10 -76 -3 -20 -7 -55 -10 -76 -2 -21 -6 -59 -10 -84
-3 -25 -8 -65 -11 -90 -3 -25 -7 -56 -9 -70 -2 -14 -7 -51 -10 -83 -4 -32 -8
-67 -10 -77 -2 -10 -7 -50 -10 -87 -4 -37 -9 -77 -11 -88 -2 -11 -6 -45 -10
-75 -3 -30 -7 -67 -10 -83 -2 -15 -7 -48 -10 -75 -2 -26 -7 -60 -9 -77 -2 -16
-7 -57 -10 -90 -3 -33 -8 -71 -10 -85 -2 -14 -7 -50 -10 -80 -3 -30 -8 -66
-10 -80 -3 -14 -7 -50 -11 -80 -7 -62 -9 -86 -18 -150 -3 -25 -8 -65 -11 -90
-3 -25 -8 -63 -10 -84 -3 -21 -7 -55 -10 -75 -5 -36 -11 -83 -21 -171 -3 -25
-7 -56 -9 -70 -2 -14 -7 -50 -10 -80 -3 -30 -8 -66 -10 -80 -4 -23 -11 -83
-20 -170 -2 -19 -6 -48 -9 -65 -5 -29 -11 -82 -21 -172 -3 -24 -7 -60 -9 -80
-3 -21 -7 -60 -10 -88 -4 -27 -8 -61 -11 -75 -3 -22 -9 -70 -20 -170 -1 -14
-6 -50 -10 -80 -4 -30 -9 -68 -11 -85 -5 -39 -15 -123 -19 -155 -2 -14 -6 -46
-9 -72 -3 -27 -9 -69 -12 -95 -3 -27 -7 -59 -9 -73 -1 -14 -5 -47 -9 -75 -4
-27 -9 -66 -11 -85 -3 -19 -7 -60 -10 -90 -4 -30 -8 -66 -10 -80 -2 -14 -7
-45 -10 -70 -3 -25 -8 -63 -10 -85 -6 -47 -13 -100 -21 -170 -3 -27 -8 -63
-10 -80 -3 -16 -7 -50 -9 -75 -4 -46 -12 -114 -20 -160 -2 -14 -7 -54 -10 -90
-4 -36 -9 -73 -10 -82 -2 -9 -6 -41 -9 -70 -4 -29 -8 -69 -11 -88 -3 -19 -7
-57 -10 -85 -3 -27 -8 -61 -10 -75 -2 -14 -7 -47 -10 -75 -3 -27 -7 -63 -9
-80 -2 -16 -7 -55 -11 -85 -3 -30 -8 -66 -10 -80 -2 -14 -6 -47 -10 -75 -3
-27 -7 -66 -10 -85 -2 -19 -7 -60 -10 -90 -4 -30 -8 -66 -10 -80 -3 -14 -7
-47 -10 -75 -5 -47 -7 -65 -20 -167 -13 -98 -15 -116 -21 -168 -3 -30 -7 -64
-9 -75 -1 -11 -6 -47 -10 -80 -3 -33 -8 -71 -10 -85 -2 -14 -7 -47 -10 -75 -3
-27 -8 -66 -10 -85 -3 -19 -7 -55 -10 -80 -3 -25 -7 -61 -10 -80 -5 -39 -14
-105 -21 -162 -12 -106 -21 -175 -29 -238 -2 -19 -7 -60 -10 -90 -4 -30 -8
-66 -10 -80 -3 -14 -7 -47 -10 -75 -3 -27 -8 -67 -10 -87 -12 -97 -16 -126
-21 -160 -9 -69 -13 -103 -19 -151 -2 -26 -8 -71 -11 -100 -3 -28 -7 -63 -9
-77 -1 -14 -5 -43 -9 -65 -3 -22 -8 -65 -11 -95 -3 -30 -8 -66 -10 -80 -6 -41
-19 -148 -29 -241 -4 -31 -9 -66 -11 -80 -3 -13 -7 -48 -10 -79 -3 -31 -7 -65
-9 -77 -3 -12 -7 -50 -11 -85 -3 -35 -8 -74 -10 -88 -2 -14 -7 -52 -10 -85 -3
-33 -7 -70 -9 -82 -3 -12 -7 -50 -11 -85 -4 -35 -8 -81 -11 -103 -2 -22 -6
-60 -9 -85 -2 -25 -6 -63 -9 -85 -7 -54 -18 -163 -21 -200 -2 -16 -6 -57 -9
-90 -10 -95 -14 -135 -21 -215 -4 -41 -9 -88 -10 -105 -2 -16 -6 -64 -10 -105
-3 -41 -8 -91 -10 -110 -2 -19 -6 -69 -10 -110 -3 -42 -7 -96 -10 -120 -3 -25
-7 -75 -9 -112 -3 -38 -8 -92 -11 -120 -3 -29 -7 -84 -10 -123 -3 -38 -7 -95
-10 -125 -5 -63 -14 -188 -20 -275 -3 -33 -7 -91 -10 -130 -8 -113 -16 -235
-20 -305 -2 -36 -7 -108 -10 -160 -15 -244 -23 -384 -30 -520 -3 -47 -7 -125
-10 -175 -5 -102 -12 -237 -20 -405 -13 -294 -15 -353 -20 -475 -38 -958 -60
-2351 -41 -2655 8 -132 17 -249 21 -285 1 -16 6 -59 10 -95 11 -101 12 -112
19 -160 18 -116 25 -154 47 -260 11 -52 22 -106 25 -119 3 -14 7 -28 10 -33 3
-5 8 -21 10 -36 3 -15 17 -63 32 -107 14 -44 27 -82 28 -85 1 -7 18 -50 52
-130 51 -123 141 -280 204 -355 32 -39 147 -147 184 -174 76 -54 203 -107 304
-127 19 -4 768 -8 1664 -8 1752 -1 1668 -4 1701 48 17 25 27 82 40 226 7 77
16 157 20 190 3 19 7 58 10 85 2 28 7 70 10 95 3 25 7 68 10 95 3 28 7 66 10
85 2 19 7 60 10 90 3 30 7 71 9 90 3 19 8 64 12 100 3 36 7 76 9 90 15 130 19
168 29 270 4 36 9 81 11 100 6 48 13 104 20 180 11 103 12 111 20 180 5 36 9
79 10 95 2 17 5 54 9 83 3 28 8 73 11 100 3 26 7 63 9 82 3 19 8 64 12 100 3
36 8 76 9 90 2 14 6 57 10 95 10 100 12 114 19 170 7 64 17 149 21 200 3 22 7
60 10 85 3 25 7 68 10 95 2 28 7 70 10 95 3 25 8 65 10 89 2 24 7 60 9 80 3
20 8 65 12 101 3 36 7 76 9 90 2 14 6 54 9 90 4 36 8 76 11 90 3 14 7 57 10
96 3 39 7 80 9 90 2 11 7 48 10 84 4 36 9 81 11 100 3 19 7 55 9 80 3 25 7 70
11 100 3 30 7 71 9 90 2 19 7 60 10 90 7 54 9 78 22 195 3 33 7 71 9 85 2 14
6 54 9 90 4 36 8 81 11 100 2 19 7 60 10 90 3 30 8 71 10 90 3 19 7 60 10 90
3 30 7 71 10 90 6 46 14 122 20 190 3 30 7 66 10 80 2 14 7 57 10 95 9 86 11
103 20 185 10 90 12 106 19 180 4 36 9 81 11 100 3 19 7 58 10 85 3 28 7 70
10 95 3 25 7 67 10 95 3 27 7 65 10 85 2 19 7 62 10 94 3 33 7 71 9 85 3 14 8
58 11 96 10 93 21 203 30 275 2 14 6 54 9 90 4 36 9 83 12 105 11 92 21 188
29 265 2 19 6 60 9 90 4 30 9 71 10 90 2 19 7 60 10 90 4 30 9 75 11 99 2 24
7 60 9 80 3 20 8 65 11 101 3 36 8 76 10 90 2 14 7 54 11 90 3 36 7 76 9 90 6
61 18 168 21 195 2 17 6 56 8 88 3 31 8 69 10 85 3 15 7 52 10 82 3 30 8 78
11 105 3 28 8 70 10 94 2 24 7 60 9 80 5 34 13 105 21 196 2 22 6 60 10 85 3
25 8 68 10 95 3 28 7 70 10 95 6 50 13 112 20 180 2 25 7 65 10 90 2 25 7 65
9 90 3 25 7 65 10 90 3 25 8 70 11 100 3 30 7 71 10 90 5 46 14 124 20 180 5
48 12 106 20 180 7 61 14 129 20 193 3 28 7 68 10 87 2 19 6 58 9 85 11 102
16 141 22 190 3 28 7 66 9 85 5 50 16 161 20 190 4 32 13 115 21 183 6 52 7
68 19 182 3 33 8 76 10 95 3 19 7 60 10 90 3 30 7 71 10 90 3 19 7 60 10 90 3
30 8 75 11 100 3 25 7 61 9 80 2 19 6 61 10 92 3 32 8 77 10 99 3 23 7 58 9
78 3 20 8 63 11 96 11 108 15 139 20 185 3 25 7 65 10 90 4 42 8 79 20 190 3
25 8 65 10 90 3 25 8 68 11 95 3 28 7 66 9 85 1 19 5 58 9 85 3 28 8 72 11 99
2 26 7 65 9 85 3 20 8 63 11 96 12 109 15 140 20 185 3 25 7 66 10 91 2 25 6
64 9 85 3 21 8 66 11 99 4 33 8 74 10 90 5 39 17 151 20 190 2 17 6 55 10 85
4 30 8 71 10 90 1 19 5 58 9 85 3 28 8 73 11 100 5 48 8 79 21 190 3 28 7 66
9 85 2 19 6 60 9 90 4 30 9 75 11 99 2 24 7 60 9 80 6 44 18 156 21 196 2 17
6 55 9 85 4 30 8 71 10 90 2 19 7 60 10 90 4 30 8 73 11 95 2 22 6 58 9 80 2
22 8 69 11 105 4 36 8 76 10 90 2 14 6 54 9 90 4 36 9 81 11 100 3 19 7 58 10
85 3 28 7 70 10 95 3 25 7 66 10 91 2 25 6 64 9 85 3 21 8 64 11 94 3 30 7 71
10 90 2 19 7 62 10 94 3 33 7 71 10 85 2 14 7 58 10 96 4 39 8 81 10 95 3 25
15 131 20 180 2 14 6 58 9 97 4 40 9 82 11 93 2 12 7 49 10 83 3 34 7 80 10
102 3 22 8 60 10 85 2 25 6 65 9 90 3 25 8 70 11 100 3 30 7 71 10 90 6 50 16
138 20 185 2 22 6 60 10 85 3 25 8 65 10 90 12 120 16 158 20 193 12 92 24
203 30 272 2 17 6 55 10 85 3 30 8 71 10 90 4 45 14 133 20 190 3 25 8 65 10
90 3 24 7 67 11 95 7 63 11 104 19 180 3 33 7 74 10 90 2 17 7 57 10 90 3 33
8 76 10 95 3 19 7 60 10 90 3 30 7 71 10 90 3 19 7 60 10 90 3 30 8 80 11 110
4 30 8 66 9 80 3 23 10 91 21 185 3 22 7 65 10 95 3 30 7 66 9 80 2 14 6 54 9
90 3 36 8 81 11 100 6 48 14 118 20 187 3 32 8 69 10 83 2 14 7 54 11 90 3 36
7 76 9 90 1 14 5 57 9 95 4 39 9 81 11 95 4 26 8 63 29 270 4 30 8 71 11 90 2
19 7 60 10 90 3 30 8 75 10 100 3 25 8 65 10 90 3 24 7 67 11 95 3 27 7 66 9
85 5 48 14 136 20 185 7 60 24 220 30 275 4 40 16 143 20 180 2 14 6 57 10 95
3 39 8 81 10 95 2 14 7 54 11 90 3 36 8 76 9 90 2 14 6 50 9 80 4 30 9 80 12
110 5 54 9 90 19 168 2 20 7 64 11 97 3 33 7 74 9 90 2 17 6 59 10 95 4 36 8
76 10 90 2 14 6 54 9 90 4 36 9 81 11 100 3 19 7 60 10 90 3 30 8 71 10 91 3
19 8 61 10 92 3 32 7 70 10 85 2 15 7 54 10 87 3 33 7 76 10 95 2 19 7 65 10
104 4 38 9 79 11 90 24 124 24 597 -1 723 -2 11 -6 36 -9 54 -8 49 -14 78 -21
99 -3 10 -8 27 -10 37 -2 10 -15 52 -30 93 -58 160 -152 292 -277 388 -36 29
-71 52 -76 52 -6 0 -12 4 -14 8 -7 18 -234 135 -283 147 -5 1 -17 5 -25 8 -28
10 -117 37 -141 43 -13 3 -33 7 -44 9 -11 3 -30 7 -43 9 -12 3 -25 7 -30 9 -4
3 -34 8 -67 12 -33 4 -71 9 -85 11 -108 16 -224 19 -725 18 -481 0 -847 -5
-1325 -19 -77 -2 -396 -13 -560 -20 -36 -1 -130 -6 -210 -10 -80 -4 -170 -9
-200 -10 -213 -11 -471 -27 -645 -41 -33 -2 -87 -6 -120 -9 -91 -6 -207 -16
-240 -20 -16 -2 -66 -6 -110 -10 -87 -7 -109 -9 -200 -19 -33 -4 -80 -9 -105
-11 -61 -6 -140 -15 -170 -20 -14 -3 -50 -7 -80 -10 -30 -3 -66 -7 -80 -10
-14 -2 -45 -7 -70 -10 -25 -3 -53 -8 -62 -11 -9 -3 -27 -7 -40 -10 -103 -22
-210 -49 -238 -61 -8 -3 -19 -7 -25 -9 -35 -8 -123 -42 -205 -77 -301 -130
-560 -305 -782 -529 -203 -205 -317 -375 -485 -718 -68 -140 -134 -275 -146
-299 -12 -25 -22 -47 -23 -50 0 -3 -32 -71 -71 -151 -39 -80 -89 -185 -113
-235 -24 -49 -76 -160 -118 -245 -41 -85 -91 -191 -112 -235 -39 -83 -138
-291 -193 -405 -18 -36 -32 -67 -33 -70 0 -3 -34 -75 -76 -160 -41 -85 -96
-198 -121 -250 -24 -52 -71 -149 -102 -215 -79 -165 -169 -355 -212 -445 -19
-41 -42 -88 -51 -105 -8 -16 -19 -37 -23 -45 -5 -8 -24 -49 -43 -90 -33 -73
-99 -211 -213 -450 -31 -63 -80 -167 -110 -230 -31 -63 -80 -167 -110 -230
-31 -63 -77 -160 -103 -215 -26 -55 -76 -158 -110 -230 -34 -71 -85 -177 -112
-235 -77 -161 -129 -271 -208 -435 -39 -82 -84 -175 -98 -205 -15 -30 -27 -57
-28 -60 0 -3 -25 -54 -55 -115 -29 -60 -54 -112 -55 -115 0 -3 -33 -72 -73
-155 -40 -82 -90 -186 -111 -230 -21 -44 -69 -145 -108 -225 -38 -80 -86 -181
-106 -225 -35 -75 -42 -90 -65 -132 -10 -19 -89 -186 -148 -313 -19 -41 -39
-82 -44 -90 -5 -8 -13 -25 -18 -36 -10 -23 -64 -136 -159 -334 -32 -69 -83
-174 -112 -235 -62 -131 -131 -276 -210 -440 -32 -66 -80 -167 -108 -225 -27
-58 -75 -158 -106 -222 -52 -110 -87 -184 -221 -463 -126 -264 -161 -338 -222
-465 -36 -74 -82 -171 -103 -215 -21 -44 -66 -138 -100 -210 -34 -71 -89 -186
-122 -255 -33 -69 -71 -150 -86 -180 -15 -30 -27 -57 -28 -60 0 -3 -34 -75
-76 -160 -118 -242 -295 -613 -427 -895 -29 -60 -56 -117 -61 -125 -6 -8 -15
-26 -21 -40 -5 -14 -21 -46 -34 -72 -14 -26 -25 -54 -25 -63 0 -8 -4 -15 -10
-15 -5 0 -10 -5 -10 -10 0 -6 -27 -66 -59 -133 -32 -67 -82 -171 -111 -232
-29 -60 -79 -166 -112 -235 -86 -177 -169 -353 -211 -440 -34 -72 -94 -199
-217 -455 -32 -66 -81 -169 -110 -230 -29 -60 -77 -162 -108 -225 -30 -63 -76
-160 -102 -215 -26 -55 -76 -158 -110 -230 -129 -269 -182 -380 -315 -660 -26
-55 -71 -149 -100 -210 -29 -60 -85 -177 -124 -260 -40 -82 -85 -176 -101
-207 -17 -32 -28 -58 -25 -58 3 0 -6 -18 -20 -40 -14 -22 -25 -42 -25 -45 0
-6 -20 -48 -150 -320 -34 -71 -83 -173 -107 -225 -25 -52 -75 -156 -111 -230
-35 -74 -87 -182 -114 -240 -28 -58 -76 -159 -108 -225 -31 -66 -76 -158 -98
-205 -22 -47 -68 -143 -102 -215 -34 -71 -83 -173 -108 -225 -42 -90 -82 -173
-223 -467 -34 -71 -81 -171 -106 -223 -24 -52 -48 -102 -53 -110 -6 -8 -13
-22 -16 -30 -3 -8 -25 -55 -49 -105 -102 -215 -161 -338 -217 -455 -33 -69
-76 -159 -95 -200 -20 -41 -65 -136 -100 -210 -36 -74 -87 -180 -113 -235 -26
-55 -66 -137 -88 -183 -23 -45 -42 -86 -43 -90 -2 -6 -32 -69 -188 -394 -28
-60 -74 -156 -102 -215 -144 -304 -141 -299 -151 -272 -6 13 -11 31 -13 39 -4
21 -46 172 -53 190 -3 8 -6 20 -7 25 -3 10 -25 91 -51 185 -9 30 -17 63 -19
72 -2 9 -9 27 -16 40 -7 13 -11 23 -9 23 5 0 -21 108 -31 126 -4 9 -10 27 -13
40 -7 31 -11 49 -36 139 -12 41 -26 91 -31 110 -5 19 -11 42 -14 50 -2 8 -22
80 -45 160 -23 80 -43 156 -46 169 -3 14 -7 28 -10 33 -3 4 -7 16 -9 26 -1 9
-8 35 -14 57 -6 22 -10 42 -9 45 1 3 -4 14 -10 26 -6 11 -13 32 -15 45 -3 13
-13 51 -23 84 -10 33 -19 65 -20 70 -1 6 -12 44 -23 85 -12 41 -23 82 -25 90
-3 8 -11 40 -20 70 -8 30 -26 96 -40 146 -14 49 -30 103 -36 120 -6 16 -11 31
-11 34 1 8 -18 78 -55 203 -14 48 -28 99 -30 113 -3 14 -12 46 -20 71 -9 25
-17 53 -19 62 -13 63 -113 399 -151 506 -25 72 -58 168 -74 215 -16 47 -51
150 -80 230 -28 80 -53 152 -55 160 -2 8 -18 53 -35 100 -17 47 -32 90 -33 95
-10 35 -19 63 -27 80 -5 11 -22 61 -39 110 -16 50 -61 182 -101 295 -39 113
-85 246 -101 295 -16 50 -34 99 -39 110 -5 11 -16 45 -26 75 -9 30 -21 61 -27
68 -5 6 -7 12 -4 12 3 0 -8 37 -25 83 -16 45 -45 127 -63 182 -19 55 -48 138
-64 185 -78 223 -193 556 -195 565 -2 6 -8 23 -14 38 -7 16 -12 34 -12 41 0 7
-3 16 -7 20 -5 4 -9 12 -9 17 -1 5 -2 10 -4 12 -1 1 -3 9 -5 17 -4 15 -129
378 -159 460 -9 25 -19 52 -21 60 -2 8 -18 56 -35 105 -37 108 -39 113 -41
123 0 4 -5 15 -11 25 -5 10 -11 26 -13 35 -2 9 -13 44 -25 77 -26 74 -29 85
-30 88 0 1 -12 34 -26 72 -14 39 -36 104 -50 145 -13 41 -29 83 -34 92 -6 10
-10 23 -10 30 0 6 -14 50 -31 97 -33 93 -38 109 -39 116 0 6 -27 80 -40 110
-5 11 -27 74 -49 140 -22 66 -68 199 -101 295 -34 96 -68 195 -76 220 -8 25
-18 52 -21 60 -3 8 -7 20 -9 25 -1 6 -32 96 -69 200 -36 105 -75 217 -86 250
-11 33 -23 67 -26 75 -3 8 -7 22 -9 30 -2 8 -7 23 -12 35 -6 11 -24 63 -42
115 -17 52 -34 102 -37 110 -3 8 -7 20 -9 25 -2 9 -59 172 -71 205 -4 8 -7 20
-9 25 -1 6 -16 48 -33 95 -18 47 -33 92 -35 100 -2 8 -14 42 -25 75 -12 33
-37 107 -57 165 -50 146 -114 332 -121 350 -3 8 -7 20 -9 25 -5 17 -150 437
-168 485 -9 25 -18 52 -21 60 -3 15 -61 183 -72 210 -3 8 -7 20 -8 26 -2 5
-19 57 -40 115 -20 57 -43 124 -52 149 -8 25 -19 54 -24 65 -4 11 -24 67 -43
125 -77 229 -137 406 -146 425 -5 11 -22 61 -39 110 -16 50 -59 176 -96 280
-36 105 -77 222 -90 260 -13 39 -56 162 -95 275 -39 113 -83 239 -96 280 -14
41 -28 82 -31 90 -3 8 -7 20 -9 25 -1 6 -28 82 -59 170 -31 88 -69 201 -86
250 -16 50 -34 99 -39 110 -5 11 -16 45 -26 75 -9 30 -19 60 -23 65 -3 6 -6
15 -7 20 -2 6 -39 116 -84 245 -44 129 -103 300 -131 380 -27 80 -51 151 -54
158 -2 7 -4 14 -5 17 0 3 -7 19 -15 35 -8 16 -15 32 -15 35 0 3 0 6 -1 8 0 1
-2 9 -4 17 -2 8 -27 80 -54 160 -28 80 -70 199 -92 265 -23 66 -64 183 -91
260 -27 77 -65 187 -84 245 -19 58 -38 112 -41 120 -3 8 -7 20 -9 25 -2 9 -81
236 -170 490 -20 55 -42 123 -51 150 -8 28 -20 56 -25 63 -6 6 -8 12 -6 12 3
0 -6 30 -19 68 -13 37 -39 112 -58 167 -18 55 -63 186 -99 290 -37 105 -80
231 -97 280 -16 50 -34 99 -39 110 -4 11 -22 61 -39 110 -16 50 -46 137 -66
195 -38 109 -44 127 -45 135 -1 2 -10 28 -21 57 -11 29 -33 94 -50 143 -16 50
-32 97 -36 105 -3 8 -7 20 -9 25 -1 6 -17 48 -34 95 -17 47 -32 90 -34 95 -1
6 -8 30 -15 54 -7 24 -16 51 -21 60 -5 9 -21 52 -35 96 -15 44 -29 87 -32 95
-3 8 -7 20 -9 25 -1 6 -30 89 -64 185 -33 96 -74 213 -90 260 -16 47 -59 171
-95 275 -37 105 -73 213 -82 240 -8 28 -18 55 -21 60 -4 6 -7 15 -8 20 -2 9
-89 262 -101 295 -3 8 -7 20 -9 25 -1 6 -18 55 -38 110 -20 55 -38 107 -40
115 -3 8 -18 56 -36 105 -36 104 -39 113 -41 123 -1 4 -12 34 -24 67 -13 33
-39 110 -59 170 -21 61 -41 119 -46 130 -13 29 -34 100 -30 100 2 0 -3 11 -10
25 -8 14 -15 31 -16 38 -1 8 -6 21 -10 30 -4 9 -8 22 -10 27 -1 6 -19 55 -39
110 -19 55 -37 107 -39 115 -2 8 -16 49 -31 90 -14 41 -42 120 -60 175 -18 55
-50 145 -70 200 -20 55 -38 107 -40 115 -5 19 -72 215 -87 253 l-10 27 -4869
0 -4869 0 0 -1598z"/>
</g>
</svg>
