<svg role="img" xmlns="http://www.w3.org/2000/svg" viewBox="0 0 1024 1024"><path d="m941.65,189.08c-7.07-6.06-17.34-9.09-30.8-9.09-23.55,0-73.21.65-108.99,5.3-20.76,2.7-38.56,15.39-47.2,33.48l-247.05,517.1-22.01-78.55-168.17-486.3H74.1v79.74l70.44,13.59v473.48l-70.44,13.59v79.29h273.63v-79.32l-70.71-13.6c2.98-70.33-9.45-318.8-12.69-393.44l2.72-.45,178.56,486.82h82.8c11.63.45,27.12-.9,32.01-4.06,7.4-4.79,16.31-15.15,26.76-31.11,10.43-15.95,24.06-40.04,40.9-72.28,16.82-32.22,38.71-75.78,65.64-130.68l123.56-252.14-34.69,280.86c-3.38,28.09-5.9,57.44-7.57,88.07-1.69,30.63-2.52,59.04-2.52,85.2,0,18.52,2.35,32.88,7.07,43.08,4.7,10.2,11.44,15.32,20.2,15.32h78.15c1.5,0,2.76-1.07,2.91-2.49l68.4-626.48c2.02-17.23-.51-28.87-7.57-34.94Z"/></svg>